<svg width="83" height="83" viewBox="0 0 83 83" fill="none" xmlns="http://www.w3.org/2000/svg">
<circle cx="41.5" cy="41.5" r="41.5" fill="#145DA0"/>
<path d="M29.11 59.4878L34.62 33.2976L29.4 35.3122V42.2195H23.6V31.5707L38.245 25.4549C38.9217 25.1671 39.6346 24.9872 40.3837 24.9152C41.1329 24.8433 41.8458 24.9272 42.5225 25.1671C43.1992 25.4069 43.8396 25.7427 44.4437 26.1744C45.0479 26.6061 45.5433 27.1577 45.93 27.8293L48.83 32.4341C50.1833 34.5927 51.9596 36.2835 54.1587 37.5067C56.3579 38.7299 58.7383 39.3415 61.3 39.3415V45.0976C57.9167 45.0976 54.8837 44.426 52.2012 43.0829C49.5187 41.7398 47.235 40.013 45.35 37.9024L43.61 42.2195L49.7 47.9756V59.4878H43.9V50.7098L38.245 45.5293L35.2 59.4878H29.11ZM45.35 23.5122C43.755 23.5122 42.3896 22.9486 41.2537 21.8213C40.1179 20.6941 39.55 19.339 39.55 17.7561C39.55 16.1732 40.1179 14.8181 41.2537 13.6909C42.3896 12.5636 43.755 12 45.35 12C46.945 12 48.3104 12.5636 49.4462 13.6909C50.5821 14.8181 51.15 16.1732 51.15 17.7561C51.15 19.339 50.5821 20.6941 49.4462 21.8213C48.3104 22.9486 46.945 23.5122 45.35 23.5122ZM41 71C36.9883 71 33.2183 70.2445 29.69 68.7335C26.1617 67.2226 23.0925 65.172 20.4825 62.5817C17.8725 59.9915 15.8062 56.9455 14.2837 53.4439C12.7612 49.9423 12 46.2008 12 42.2195C12 36.5114 13.4862 31.3789 16.4587 26.822C19.4312 22.265 23.31 18.8114 28.095 16.461L30.705 21.5695C26.8867 23.4402 23.7812 26.2104 21.3887 29.8799C18.9962 33.5494 17.8 37.6626 17.8 42.2195C17.8 48.6472 20.0475 54.0915 24.5425 58.5524C29.0375 63.0134 34.5233 65.2439 41 65.2439C47.4767 65.2439 52.9625 63.0134 57.4575 58.5524C61.9525 54.0915 64.2 48.6472 64.2 42.2195H70C70 46.2008 69.2387 49.9423 67.7162 53.4439C66.1937 56.9455 64.1275 59.9915 61.5175 62.5817C58.9075 65.172 55.8383 67.2226 52.31 68.7335C48.7817 70.2445 45.0117 71 41 71Z" fill="#B1D4E0"/>
</svg>
