<svg width="226" height="84" viewBox="0 0 226 84" fill="none" xmlns="http://www.w3.org/2000/svg">
<circle cx="41.5" cy="41.5" r="41.5" fill="#145DA0"/>
<path d="M30.34 57.6585L35.28 34.1317L30.6 35.9415V42.1463H25.4V32.5805L38.53 27.0866C39.1367 26.828 39.7758 26.6665 40.4475 26.6018C41.1192 26.5372 41.7583 26.6126 42.365 26.828C42.9717 27.0435 43.5458 27.3451 44.0875 27.7329C44.6292 28.1207 45.0733 28.6163 45.42 29.2195L48.02 33.3561C49.2333 35.2951 50.8258 36.814 52.7975 37.9128C54.7692 39.0116 56.9033 39.561 59.2 39.561V44.7317C56.1667 44.7317 53.4475 44.1285 51.0425 42.922C48.6375 41.7154 46.59 40.1642 44.9 38.2683L43.34 42.1463L48.8 47.3171V57.6585H43.6V49.7732L38.53 45.1195L35.8 57.6585H30.34ZM44.9 25.3415C43.47 25.3415 42.2458 24.8352 41.2275 23.8226C40.2092 22.81 39.7 21.5927 39.7 20.1707C39.7 18.7488 40.2092 17.5315 41.2275 16.5189C42.2458 15.5063 43.47 15 44.9 15C46.33 15 47.5542 15.5063 48.5725 16.5189C49.5908 17.5315 50.1 18.7488 50.1 20.1707C50.1 21.5927 49.5908 22.81 48.5725 23.8226C47.5542 24.8352 46.33 25.3415 44.9 25.3415ZM41 68C37.4033 68 34.0233 67.3213 30.86 65.964C27.6967 64.6067 24.945 62.7646 22.605 60.4378C20.265 58.111 18.4125 55.3748 17.0475 52.2293C15.6825 49.0837 15 45.7228 15 42.1463C15 37.0187 16.3325 32.4081 18.9975 28.3146C21.6625 24.2211 25.14 21.1187 29.43 19.0073L31.77 23.5963C28.3467 25.2768 25.5625 27.7652 23.4175 31.0616C21.2725 34.3579 20.2 38.0528 20.2 42.1463C20.2 47.9203 22.215 52.811 26.245 56.8183C30.275 60.8256 35.1933 62.8293 41 62.8293C46.8067 62.8293 51.725 60.8256 55.755 56.8183C59.785 52.811 61.8 47.9203 61.8 42.1463H67C67 45.7228 66.3175 49.0837 64.9525 52.2293C63.5875 55.3748 61.735 58.111 59.395 60.4378C57.055 62.7646 54.3033 64.6067 51.14 65.964C47.9767 67.3213 44.5967 68 41 68Z" fill="#B1D4E0"/>
<path d="M115.363 33.4062V59H111.971V33.4062H115.363ZM126.086 44.9199V47.6973H114.625V44.9199H126.086ZM127.826 33.4062V36.1836H114.625V33.4062H127.826ZM134.91 39.9805V59H131.641V39.9805H134.91ZM131.395 34.9355C131.395 34.4082 131.553 33.9629 131.869 33.5996C132.197 33.2363 132.678 33.0547 133.311 33.0547C133.932 33.0547 134.406 33.2363 134.734 33.5996C135.074 33.9629 135.244 34.4082 135.244 34.9355C135.244 35.4395 135.074 35.873 134.734 36.2363C134.406 36.5879 133.932 36.7637 133.311 36.7637C132.678 36.7637 132.197 36.5879 131.869 36.2363C131.553 35.873 131.395 35.4395 131.395 34.9355ZM148.094 39.9805V42.4766H137.811V39.9805H148.094ZM141.291 35.3574H144.543V54.2891C144.543 54.9336 144.643 55.4199 144.842 55.748C145.041 56.0762 145.299 56.293 145.615 56.3984C145.932 56.5039 146.271 56.5566 146.635 56.5566C146.904 56.5566 147.186 56.5332 147.479 56.4863C147.783 56.4277 148.012 56.3809 148.164 56.3457L148.182 59C147.924 59.082 147.584 59.1582 147.162 59.2285C146.752 59.3105 146.254 59.3516 145.668 59.3516C144.871 59.3516 144.139 59.1934 143.471 58.877C142.803 58.5605 142.27 58.0332 141.871 57.2949C141.484 56.5449 141.291 55.5371 141.291 54.2715V35.3574ZM155.16 44.041V59H151.908V39.9805H154.984L155.16 44.041ZM154.387 48.7695L153.033 48.7168C153.045 47.416 153.238 46.2148 153.613 45.1133C153.988 44 154.516 43.0332 155.195 42.2129C155.875 41.3926 156.684 40.7598 157.621 40.3145C158.57 39.8574 159.619 39.6289 160.768 39.6289C161.705 39.6289 162.549 39.7578 163.299 40.0156C164.049 40.2617 164.688 40.6602 165.215 41.2109C165.754 41.7617 166.164 42.4766 166.445 43.3555C166.727 44.2227 166.867 45.2832 166.867 46.5371V59H163.598V46.502C163.598 45.5059 163.451 44.709 163.158 44.1113C162.865 43.502 162.438 43.0625 161.875 42.793C161.312 42.5117 160.621 42.3711 159.801 42.3711C158.992 42.3711 158.254 42.541 157.586 42.8809C156.93 43.2207 156.361 43.6895 155.881 44.2871C155.412 44.8848 155.043 45.5703 154.773 46.3438C154.516 47.1055 154.387 47.9141 154.387 48.7695ZM179.699 59.3516C178.375 59.3516 177.174 59.1289 176.096 58.6836C175.029 58.2266 174.109 57.5879 173.336 56.7676C172.574 55.9473 171.988 54.9746 171.578 53.8496C171.168 52.7246 170.963 51.4941 170.963 50.1582V49.4199C170.963 47.873 171.191 46.4961 171.648 45.2891C172.105 44.0703 172.727 43.0391 173.512 42.1953C174.297 41.3516 175.188 40.7129 176.184 40.2793C177.18 39.8457 178.211 39.6289 179.277 39.6289C180.637 39.6289 181.809 39.8633 182.793 40.332C183.789 40.8008 184.604 41.457 185.236 42.3008C185.869 43.1328 186.338 44.1172 186.643 45.2539C186.947 46.3789 187.1 47.6094 187.1 48.9453V50.4043H172.896V47.75H183.848V47.5039C183.801 46.6602 183.625 45.8398 183.32 45.043C183.027 44.2461 182.559 43.5898 181.914 43.0742C181.27 42.5586 180.391 42.3008 179.277 42.3008C178.539 42.3008 177.859 42.459 177.238 42.7754C176.617 43.0801 176.084 43.5371 175.639 44.1465C175.193 44.7559 174.848 45.5 174.602 46.3789C174.355 47.2578 174.232 48.2715 174.232 49.4199V50.1582C174.232 51.0605 174.355 51.9102 174.602 52.707C174.859 53.4922 175.229 54.1836 175.709 54.7812C176.201 55.3789 176.793 55.8477 177.484 56.1875C178.188 56.5273 178.984 56.6973 179.875 56.6973C181.023 56.6973 181.996 56.4629 182.793 55.9941C183.59 55.5254 184.287 54.8984 184.885 54.1133L186.854 55.6777C186.443 56.2988 185.922 56.8906 185.289 57.4531C184.656 58.0156 183.877 58.4727 182.951 58.8242C182.037 59.1758 180.953 59.3516 179.699 59.3516ZM201.971 53.9551C201.971 53.4863 201.865 53.0527 201.654 52.6543C201.455 52.2441 201.039 51.875 200.406 51.5469C199.785 51.207 198.848 50.9141 197.594 50.668C196.539 50.4453 195.584 50.1816 194.729 49.877C193.885 49.5723 193.164 49.2031 192.566 48.7695C191.98 48.3359 191.529 47.8262 191.213 47.2402C190.896 46.6543 190.738 45.9688 190.738 45.1836C190.738 44.4336 190.902 43.7246 191.23 43.0566C191.57 42.3887 192.045 41.7969 192.654 41.2812C193.275 40.7656 194.02 40.3613 194.887 40.0684C195.754 39.7754 196.721 39.6289 197.787 39.6289C199.311 39.6289 200.611 39.8984 201.689 40.4375C202.768 40.9766 203.594 41.6973 204.168 42.5996C204.742 43.4902 205.029 44.4805 205.029 45.5703H201.777C201.777 45.043 201.619 44.5332 201.303 44.041C200.998 43.5371 200.547 43.1211 199.949 42.793C199.363 42.4648 198.643 42.3008 197.787 42.3008C196.885 42.3008 196.152 42.4414 195.59 42.7227C195.039 42.9922 194.635 43.3379 194.377 43.7598C194.131 44.1816 194.008 44.627 194.008 45.0957C194.008 45.4473 194.066 45.7637 194.184 46.0449C194.312 46.3145 194.535 46.5664 194.852 46.8008C195.168 47.0234 195.613 47.2344 196.188 47.4336C196.762 47.6328 197.494 47.832 198.385 48.0312C199.943 48.3828 201.227 48.8047 202.234 49.2969C203.242 49.7891 203.992 50.3926 204.484 51.1074C204.977 51.8223 205.223 52.6895 205.223 53.709C205.223 54.541 205.047 55.3027 204.695 55.9941C204.355 56.6855 203.857 57.2832 203.201 57.7871C202.557 58.2793 201.783 58.666 200.881 58.9473C199.99 59.2168 198.988 59.3516 197.875 59.3516C196.199 59.3516 194.781 59.0527 193.621 58.4551C192.461 57.8574 191.582 57.084 190.984 56.1348C190.387 55.1855 190.088 54.1836 190.088 53.1289H193.357C193.404 54.0195 193.662 54.7285 194.131 55.2559C194.6 55.7715 195.174 56.1406 195.854 56.3633C196.533 56.5742 197.207 56.6797 197.875 56.6797C198.766 56.6797 199.51 56.5625 200.107 56.3281C200.717 56.0938 201.18 55.7715 201.496 55.3613C201.812 54.9512 201.971 54.4824 201.971 53.9551ZM220.568 53.9551C220.568 53.4863 220.463 53.0527 220.252 52.6543C220.053 52.2441 219.637 51.875 219.004 51.5469C218.383 51.207 217.445 50.9141 216.191 50.668C215.137 50.4453 214.182 50.1816 213.326 49.877C212.482 49.5723 211.762 49.2031 211.164 48.7695C210.578 48.3359 210.127 47.8262 209.811 47.2402C209.494 46.6543 209.336 45.9688 209.336 45.1836C209.336 44.4336 209.5 43.7246 209.828 43.0566C210.168 42.3887 210.643 41.7969 211.252 41.2812C211.873 40.7656 212.617 40.3613 213.484 40.0684C214.352 39.7754 215.318 39.6289 216.385 39.6289C217.908 39.6289 219.209 39.8984 220.287 40.4375C221.365 40.9766 222.191 41.6973 222.766 42.5996C223.34 43.4902 223.627 44.4805 223.627 45.5703H220.375C220.375 45.043 220.217 44.5332 219.9 44.041C219.596 43.5371 219.145 43.1211 218.547 42.793C217.961 42.4648 217.24 42.3008 216.385 42.3008C215.482 42.3008 214.75 42.4414 214.188 42.7227C213.637 42.9922 213.232 43.3379 212.975 43.7598C212.729 44.1816 212.605 44.627 212.605 45.0957C212.605 45.4473 212.664 45.7637 212.781 46.0449C212.91 46.3145 213.133 46.5664 213.449 46.8008C213.766 47.0234 214.211 47.2344 214.785 47.4336C215.359 47.6328 216.092 47.832 216.982 48.0312C218.541 48.3828 219.824 48.8047 220.832 49.2969C221.84 49.7891 222.59 50.3926 223.082 51.1074C223.574 51.8223 223.82 52.6895 223.82 53.709C223.82 54.541 223.645 55.3027 223.293 55.9941C222.953 56.6855 222.455 57.2832 221.799 57.7871C221.154 58.2793 220.381 58.666 219.479 58.9473C218.588 59.2168 217.586 59.3516 216.473 59.3516C214.797 59.3516 213.379 59.0527 212.219 58.4551C211.059 57.8574 210.18 57.084 209.582 56.1348C208.984 55.1855 208.686 54.1836 208.686 53.1289H211.955C212.002 54.0195 212.26 54.7285 212.729 55.2559C213.197 55.7715 213.771 56.1406 214.451 56.3633C215.131 56.5742 215.805 56.6797 216.473 56.6797C217.363 56.6797 218.107 56.5625 218.705 56.3281C219.314 56.0938 219.777 55.7715 220.094 55.3613C220.41 54.9512 220.568 54.4824 220.568 53.9551Z" fill="#B1D4E0"/>
<path d="M73.1328 59V36.4531H73.5898L80.293 52.5508V59H73.1328ZM73.1328 28.125V23.4531H78.7188L88.418 46.9648L93.8008 34.8281H94.3086V51.332L90.9062 59H85.9805L73.1328 28.125ZM97.0508 59V23.4531H104.211V59H97.0508Z" fill="white"/>
</svg>
